#!OML:ASF H:\Pregnant\Project 1\Capture day 1\Session 1\femalepreg.ASF
:FULLY-SPECIFIED
:DEGREES
215
root 3.70854 10.773 4.88326 50.931 -6.63079 0.730423
lowerback -2.77879 -2.10782 -2.96715
upperback -4.03211 -2.8322 -0.952894
thorax -2.49529 -1.36262 0.662885
lowerneck -49.4598 -5.02476 -1.00315
upperneck 11.4239 -8.04362 8.40466
head 10.8974 -2.34805 1.96344
rclavicle -2.54444e-014 -1.11319e-014
rhumerus -63.5924 55.0562 -98.7429
rradius 67.1845
rwrist -8.40513
rhand -59.5955 -54.5559
rfingers 7.12502
rthumb -31.7667 -81.8084
lclavicle -2.54444e-014 -1.11319e-014
lhumerus -57.8589 -20.5297 79.5711
lradius 58.7392
lwrist 5.87224
lhand -56.9983 95.7854
lfingers 7.12502
lthumb -29.2899 -68.0718
rfemur -136.89 -6.30229 21.6081
rtibia 86.0351
rfoot 3.62286 -2.91934
rtoes -7.17556
lfemur -133.072 6.53547 -26.1356
ltibia 78.6811
lfoot 6.40152 0.00710355
ltoes -6.68028
216
root 3.70846 10.8146 4.90974 50.7916 -6.63477 0.726212
lowerback -2.6045 -2.10627 -2.99643
upperback -3.95558 -2.83412 -0.945482
thorax -2.512 -1.36263 0.692065
lowerneck -49.1849 -5.19831 -1.12007
upperneck 11.2074 -8.23292 8.62063
head 10.8161 -2.42124 2.02321
rclavicle -3.4191e-014 -1.59028e-014
rhumerus -63.2431 54.9054 -98.7294
rradius 66.5668
rwrist -8.23702
rhand -59.6177 -54.8052
rfingers 7.12502
rthumb -31.7878 -82.0535
lclavicle -3.4191e-014 -1.59028e-014
lhumerus -57.5308 -20.2661 79.587
lradius 58.0615
lwrist 5.67303
lhand -56.9929 96.3882
lfingers 7.12502
lthumb -29.2847 -68.6738
rfemur -136.372 -6.31573 21.5689
rtibia 85.862
rfoot 3.42881 -2.97876
rtoes -7.23144
lfemur -132.553 6.55902 -26.1335
ltibia 78.486
lfoot 6.19635 0.0190398
ltoes -6.75636
217
root 3.70805 10.8563 4.93679 50.6495 -6.6463 0.71427
lowerback -2.43766 -2.10294 -3.02975
upperback -3.8761 -2.83326 -0.936735
thorax -2.52137 -1.36126 0.724507
lowerneck -48.9081 -5.36859 -1.23662
upperneck 10.9959 -8.42013 8.84169
head 10.7377 -2.49311 2.08518
rclavicle 4.77083e-015 3.18055e-015
rhumerus -62.8771 54.7516 -98.713
rradius 65.9395
rwrist -8.07381
rhand -59.642 -55.036
rfingers 7.12502
rthumb -31.8109 -82.2796
lclavicle 4.77083e-015 3.18055e-015
lhumerus -57.204 -20.0497 79.6266
lradius 57.3729
lwrist 5.52265
lhand -56.9891 96.9792
lfingers 7.12502
lthumb -29.2811 -69.2642
rfemur -135.845 -6.31659 21.527
rtibia 85.6846
rfoot 3.23388 -3.04102
rtoes -7.28649
lfemur -132.035 6.59778 -26.1446
ltibia 78.2969
lfoot 5.98295 0.0203353
ltoes -6.83289
218
root 3.7074 10.8986 4.96434 50.4967 -6.66277 0.698467
lowerback -2.26596 -2.10019 -3.0673
upperback -3.79255 -2.83325 -0.925203
thorax -2.52895 -1.36023 0.762258
lowerneck -48.6406 -5.53328 -1.34664
upperneck 10.797 -8.60424 9.05776
head 10.6651 -2.56389 2.14479
rclavicle -3.73715e-014 3.18055e-015
rhumerus -62.4949 54.5997 -98.692
rradius 65.3038
rwrist -7.91555
rhand -59.6682 -55.2158
rfingers 7.12502
rthumb -31.8359 -82.4545
lclavicle -3.73715e-014 3.18055e-015
lhumerus -56.8804 -19.8786 79.6946
lradius 56.6722
lwrist 5.43156
lhand -56.9838 97.5806
lfingers 7.12502
lthumb -29.276 -69.8647
rfemur -135.3 -6.31058 21.4831
rtibia 85.5028
rfoot 3.03398 -3.10538
rtoes -7.32668
lfemur -131.503 6.64725 -26.1669
ltibia 78.1108
lfoot 5.75951 0.0132002
ltoes -6.91563
219
root 3.70646 10.9411 4.99254 50.3362 -6.68757 0.677098
lowerback -2.09439 -2.09849 -3.11152
upperback -3.70588 -2.83456 -0.91087
thorax -2.53278 -1.35974 0.806504
lowerneck -48.3753 -5.68773 -1.44739
upperneck 10.6052 -8.78049 9.26933
head 10.5952 -2.63162 2.20275
rclavicle 1.11319e-014 -3.18055e-015
rhumerus -62.1002 54.4501 -98.6676
rradius 64.6625
rwrist -7.75566
rhand -59.7135 -55.3612
rfingers 7.12502
rthumb -31.8791 -82.5914
lclavicle 1.11319e-014 -3.18055e-015
lhumerus -56.5656 -19.748 79.7908
lradius 55.9651
lwrist 5.40628
lhand -56.9734 98.1704
lfingers 7.12502
lthumb -29.2661 -70.4527
rfemur -134.741 -6.29323 21.4359
rtibia 85.3181
rfoot 2.83224 -3.17129
rtoes -7.35861
lfemur -130.963 6.71123 -26.1989
ltibia 77.9283
lfoot 5.52881 -0.000511455
ltoes -7.00458
220
root 3.7054 10.984 5.02138 50.1648 -6.71637 0.651519
lowerback -1.91786 -2.09853 -3.15996
upperback -3.61648 -2.83835 -0.891654
thorax -2.53611 -1.36037 0.858239
lowerneck -47.7417 -6.02514 -1.94223
upperneck 9.86308 -9.03681 9.8723
head 10.7381 -2.71556 2.31773
rclavicle 3.89618e-014 -3.18055e-015
rhumerus -61.6975 54.3038 -98.6372
rradius 64.019
rwrist -7.59185
rhand -59.7677 -55.4864
rfingers 7.12502
rthumb -31.9306 -82.7062
lclavicle 3.89618e-014 -3.18055e-015
lhumerus -56.263 -19.6575 79.9219
lradius 55.2495
lwrist 5.44438
lhand -56.9589 98.7522
lfingers 7.12502
lthumb -29.2522 -71.0321
rfemur -134.165 -6.26934 21.3888
rtibia 85.1302
rfoot 2.62737 -3.23695
rtoes -7.3784
lfemur -130.411 6.78537 -26.2334
ltibia 77.7465
lfoot 5.29301 -0.0170304
ltoes -7.06152
